<svg xmlns="http://www.w3.org/2000/svg" version="1.1" xmlns:xlink="http://www.w3.org/1999/xlink" viewBox="0 0 200 200"><rect width="200" height="200" fill="url('#gradient')"></rect><defs><linearGradient id="gradient" gradientTransform="rotate(45 0.5 0.5)"><stop offset="0%" stop-color="#1d3d53"></stop><stop offset="100%" stop-color="#191819"></stop></linearGradient></defs><g><g fill="#ffffff" transform="matrix(16.427807486631018,0,0,16.427807486631018,7.92167367144701,186.74202253474272)" stroke="#1a1b1a" stroke-width="0.2"><path d="M0.52-4.82L0.51-5.38Q0.51-6.96 1.12-8.20Q1.74-9.43 2.89-10.10Q4.04-10.76 5.60-10.76L5.60-10.76Q7.97-10.76 9.34-9.29Q10.70-7.82 10.70-5.29L10.70-5.29L10.70-5.18Q10.70-2.71 9.33-1.25Q7.96 0.20 5.62 0.20L5.62 0.20Q3.36 0.20 1.99-1.16Q0.63-2.51 0.52-4.82L0.52-4.82ZM3.81-5.77L3.80-5.18Q3.80-3.71 4.26-3.03Q4.72-2.34 5.62-2.34L5.62-2.34Q7.37-2.34 7.41-5.05L7.41-5.05L7.41-5.38Q7.41-8.22 5.60-8.22L5.60-8.22Q3.95-8.22 3.81-5.77L3.81-5.77Z"></path></g></g></svg>